<!--?xml version="1.0" encoding="utf-8"?-->
<!-- Generator: Adobe Illustrator 19.1.1, SVG Export Plug-In . SVG Version: 6.00 Build 0)  -->
<svg version="1.1" id="_x31_0" xmlns="http://www.w3.org/2000/svg" xmlns:xlink="http://www.w3.org/1999/xlink" x="0px" y="0px" viewBox="0 0 512 512" style="width: 256px; height: 256px; opacity: 1;" xml:space="preserve">
<style type="text/css">
	.st0{fill:#374149;}
</style>
<g>
	<path class="st0" d="M511.455,333.172c-3.875-36.961-28.653-68.66-63.535-81.394c4.359-11.973,5.882-24.434,4.566-37.168
		c-4.5-42.633-40.145-74.821-82.985-74.821c-2.91,0-5.887,0.141-8.793,0.485c-8.375,0.832-16.61,3.046-24.43,6.438
		c-20.488-46.028-65.89-75.649-116.418-75.649c-4.43,0-8.93,0.278-13.426,0.762c-65.062,6.782-114.828,62.844-114.133,128.043
		C33.677,214.75-5.636,270.812,0.661,331.304c2.422,21.938,10.59,42.774,23.672,60.286c22.977,30.867,59.664,49.348,98.074,49.348
		h292.012c2.77,0,6.02-0.207,10.454-0.555c17.371-1.867,34.05-8.511,48.172-19.102l0.758-0.554c1.317-0.969,2.562-2.008,3.738-3.047
		l4.015-3.598C503.775,393.043,514.638,363.559,511.455,333.172z M311.11,300.148c0.696,0.254,1.298,0.649,1.798,1.145
		c0.156,0.152,0.297,0.304,0.434,0.476c0.441,0.559,0.758,1.203,0.941,1.895c0.059,0.214,0.098,0.43,0.126,0.652
		c0.09,0.691,0.038,1.406-0.172,2.106c-0.066,0.21-0.149,0.41-0.238,0.613c-0.156,0.344-0.317,0.692-0.562,1.012l-53.36,70.39
		c-2.007,2.7-6.094,2.7-8.168,0l-53.297-70.39c-0.246-0.324-0.406-0.672-0.562-1.016c-0.09-0.202-0.176-0.398-0.238-0.609
		c-0.218-0.703-0.27-1.418-0.183-2.114c0.027-0.222,0.066-0.442,0.121-0.66c0.184-0.695,0.504-1.344,0.95-1.906
		c0.121-0.152,0.25-0.289,0.382-0.422c0.52-0.523,1.149-0.934,1.879-1.191c0.175-0.059,0.351-0.102,0.531-0.145
		c0.386-0.09,0.777-0.172,1.207-0.172h22.699c2.839,0,5.125-2.285,5.125-5.121v-72.535c0-2.84,2.351-5.126,5.187-5.126h40.63
		c2.839,0,5.121,2.286,5.121,5.126v72.535c0,2.836,2.285,5.121,5.125,5.121h22.77c0.406,0,0.782,0.082,1.153,0.164
		C310.712,300.028,310.911,300.078,311.11,300.148z" style="fill: rgb(75, 75, 75);"></path>
</g>
</svg>
