<!--?xml version="1.0" encoding="utf-8"?-->
<!-- Generator: Adobe Illustrator 18.1.1, SVG Export Plug-In . SVG Version: 6.00 Build 0)  -->

<svg version="1.1" id="_x31_0" xmlns="http://www.w3.org/2000/svg" xmlns:xlink="http://www.w3.org/1999/xlink" x="0px" y="0px" viewBox="0 0 512 512" style="width: 256px; height: 256px; opacity: 1;" xml:space="preserve">
<style type="text/css">
	.st0{fill:#374149;}
</style>
<g>
	<path class="st0" d="M256,0C114.641,0,0,114.637,0,256c0,141.359,114.641,256,256,256s256-114.641,256-256
		C512,114.637,397.359,0,256,0z M217.519,412V270.274v-0.434l0,0v-0.16H169.68v-55.442h47.839v-40.879
		c0-14.77,2.813-27.442,7.954-37.898c0.21-0.43,0.461-0.828,0.683-1.254c0.821-1.578,1.668-3.133,2.594-4.606
		c0.449-0.707,0.949-1.363,1.418-2.047c0.801-1.16,1.59-2.328,2.457-3.418c0.527-0.664,1.11-1.27,1.66-1.91
		c0.922-1.062,1.832-2.133,2.821-3.121c0.438-0.434,0.914-0.824,1.359-1.246c1.211-1.141,2.434-2.27,3.734-3.301
		c0.156-0.121,0.324-0.226,0.477-0.347C254.742,104.863,270.558,100,288.879,100c20.238,0,37.679,1.519,42.801,2.238v49.602h-29.36
		c-23.042,0-27.523,10.961-27.523,26.961v35.168v0.11l0,0v0.16h49.207l5.672,0.019l-7.118,55.422h-47.457h-0.145l0,0h-0.16v142.046
		V412h-57.262H217.519z" style="fill: rgb(75, 75, 75);"></path>
</g>
</svg>
