<!--?xml version="1.0" encoding="utf-8"?-->
<!-- Generator: Adobe Illustrator 18.1.1, SVG Export Plug-In . SVG Version: 6.00 Build 0)  -->

<svg version="1.1" id="_x31_0" xmlns="http://www.w3.org/2000/svg" xmlns:xlink="http://www.w3.org/1999/xlink" x="0px" y="0px" viewBox="0 0 512 512" style="width: 256px; height: 256px; opacity: 1;" xml:space="preserve">
<style type="text/css">
	.st0{fill:#374149;}
</style>
<g>
	<path class="st0" d="M256,0C114.562,0,0,114.641,0,256c0,141.363,114.562,256,256,256c141.363,0,256-114.637,256-256
		C512,114.641,397.363,0,256,0z M261.836,222.711c0.054,0.004,0.11,0.007,0.164,0.011c-0.957-4-1.438-8.16-1.438-12.48
		c0-30.242,24.558-54.801,54.801-54.801c15.758,0,30,6.641,40,17.359c10.234-2.035,19.938-5.531,28.938-10.187
		c1.946-0.969,3.89-1.934,5.793-3.008c-3.266,10.133-9.511,18.902-17.562,25.473c-2.058,1.625-4.152,3.218-6.465,4.523
		c0.102-0.008,0.199-0.031,0.297-0.043c-0.098,0.058-0.18,0.145-0.281,0.203c8.934-1.035,17.531-3.218,25.71-6.285
		c1.867-0.66,3.738-1.332,5.59-2.082c-7.34,10.879-16.566,20.496-27.223,28.129c0.16,2.398,0.16,4.719,0.16,7.118
		c0,72.402-55.117,155.922-155.918,155.922c-30.961,0-59.762-9.039-84-24.641c4.32,0.481,8.641,0.801,13.121,0.801
		c18.711,0,36.29-4.714,51.711-12.945c0.328-0.176,0.668-0.321,0.996-0.5c0.985-0.539,1.926-1.145,2.89-1.711
		c4.266-2.473,8.43-5.156,12.398-8.203c-0.062,0-0.125-0.015-0.191-0.019c0.062-0.047,0.133-0.09,0.195-0.141
		c-20.902-0.352-38.988-12.492-47.918-30.066c-1.254-2.52-2.313-5.168-3.184-7.918c3.329,0.626,6.734,0.946,10.219,0.946
		c3.644,0,7.129-0.453,10.55-1.121c1.301-0.211,2.614-0.375,3.898-0.645c-0.102-0.019-0.195-0.066-0.297-0.09
		c0.106-0.027,0.223-0.035,0.328-0.066c-25.121-5.039-44-27.199-44-53.758v-0.64c5.84,3.203,12.29,5.371,19.157,6.289
		c1.867,0.289,3.742,0.523,5.633,0.641c-0.07-0.047-0.133-0.11-0.207-0.16c0.102,0.003,0.199,0.027,0.297,0.027
		c-14.718-9.84-24.398-26.558-24.398-45.598c0-8.594,2.106-16.719,5.668-23.981c0.598-1.164,1.129-2.359,1.816-3.484
		c26.614,32.66,66.317,54.308,111.176,57.011c0.531,0.035,1.051,0.141,1.586,0.168C261.84,222.742,261.84,222.726,261.836,222.711z" style="fill: rgb(75, 75, 75);"></path>
</g>
</svg>
